<svg viewBox="0 0 24 24" xmlns="http://www.w3.org/2000/svg" fill="none"><path fill-rule="evenodd" d="M8.444 5.001h10.96a2 2 0 0 1 2.07 2v9.5a2 2 0 0 1-2.07 2h-11a2.13 2.13 0 0 1-1.53-.64l-4.32-4.52a2 2 0 0 1-.05-2.71l4.37-4.88a2.1 2.1 0 0 1 1.57-.75m9.284 9c0-.2-.08-.39-.224-.53l-1.64-1.64 1.64-1.65a.74.74 0 0 0 0-1.06.75.75 0 0 0-1.06 0l-1.64 1.63-1.63-1.63a.75.75 0 0 0-1.06 0 .74.74 0 0 0 0 1.06l1.64 1.65-1.64 1.64a.74.74 0 0 0 0 1.06.74.74 0 0 0 1.05 0l1.64-1.64 1.64 1.64a.74.74 0 0 0 .53.22.7.7 0 0 0 .53-.22.74.74 0 0 0 .224-.53" clip-rule="evenodd"/></svg>