<svg xmlns="http://www.w3.org/2000/svg" width="24" height="24" fill="none"><path fill="#000" fill-rule="evenodd" d="M22.26 7.39a.13.13 0 0 0 0 .06q.01.176-.01.35v.13a2.22 2.22 0 0 1-.55 1.42l-6 6.85-2.82 3.18a2.4 2.4 0 0 1-.73.54 2 2 0 0 1-.4.14h-.07l-.35.05h-.12q-.155.015-.31 0h-.15l-.27-.07-.15-.07-.25-.13a1 1 0 0 1-.12-.09l-.19-.13L8.39 21a1.38 1.38 0 0 1-1.73.14 1.63 1.63 0 0 1-.93.47l-2.51.29a1 1 0 0 1-.85-.26l-.46-.46a1.29 1.29 0 0 1 .21-1.78l1.4-1.4a1.38 1.38 0 0 1 .15-1.77l1.38-1.38a2 2 0 0 1-.13-.19 1 1 0 0 1-.09-.12l-.2-.4c-.08-.09-.08-.18-.08-.28v-.14a1.7 1.7 0 0 1 0-.32v-.48a.07.07 0 0 0 0-.05 2.13 2.13 0 0 1 .69-1.14L15.27 2.9a2.24 2.24 0 0 1 3.07.1l3.31 3.28c.306.303.518.689.61 1.11m-9.35 5.38 4.5-4.5a.74.74 0 0 0 0-1.06.75.75 0 0 0-1.06 0l-4.5 4.5a.75.75 0 0 0 .53 1.28.7.7 0 0 0 .53-.22" clip-rule="evenodd"/></svg>