<svg viewBox="0 0 64 64" xmlns="http://www.w3.org/2000/svg" fill="none"><g clip-path="url(#a)"><path fill="#FFF0AF" d="M61.813 32c0 17.155-12.658 30.938-29.813 30.938-1.055 0-2.097.072-3.125-.03C13.187 61.34.938 48.1.938 32c0-16.083 12.223-29.311 27.886-30.902 1.044-.106 2.104-.036 3.176-.036 17.155 0 29.813 13.783 29.813 30.938"/><path fill="#FFE07D" d="M32 .938q-1.583.001-3.125.155C44.563 2.661 56.813 15.9 56.813 32s-12.25 29.34-27.938 30.907a31 31 0 0 0 3.125.156c17.155 0 31.063-13.908 31.063-31.063S49.155.938 32 .938"/><path fill="#FD8087" d="M36.104 47.167c0 2.335-1.768 4.103-4.104 4.103-.435 0-.855.06-1.25-.062a4.23 4.23 0 0 1 0-8.083c.395-.122.815-.062 1.25-.062 2.336 0 4.104 1.768 4.104 4.103"/><path fill="#EE6161" d="M32 42.938c-.435 0-.855.065-1.25.188a4.23 4.23 0 0 1 0 8.081 4.229 4.229 0 1 0 1.25-8.27"/><path fill="#8AC9FE" d="m10 38.629 13.432-3.6 2.008-.32A1.052 1.052 0 0 1 26.728 36l-5.407 13.95c-2.083 7.777-10.167 11.72-15.86 6.028-.514-.515-1.11-.913-1.491-1.485C.133 48.738 2.927 40.524 10 38.629"/><path fill="#60B7FF" d="M22.81 51.438 27.025 35.7a1.052 1.052 0 0 0-1.289-1.289l-2.305.618-3.6 13.431c-1.895 7.074-10.108 9.867-15.862 6.03.382.572.827 1.12 1.342 1.635 5.693 5.693 15.414 3.088 17.497-4.688"/><path fill="#000" d="M46.988 25.726a3.01 3.01 0 0 1-2.633 1.52 3.01 3.01 0 0 1-2.634-1.52.937.937 0 0 0-1.624.937 4.87 4.87 0 0 0 4.258 2.458 4.87 4.87 0 0 0 4.257-2.458.937.937 0 1 0-1.624-.937M22.279 25.726a3.01 3.01 0 0 1-2.634 1.52 3.01 3.01 0 0 1-2.633-1.52.938.938 0 0 0-1.624.937 4.87 4.87 0 0 0 4.257 2.458 4.87 4.87 0 0 0 4.258-2.458.937.937 0 1 0-1.624-.937M26.834 47.166A5.17 5.17 0 0 0 32 52.333a5.17 5.17 0 0 0 5.166-5.167A5.17 5.17 0 0 0 32 42a5.17 5.17 0 0 0-5.166 5.166m8.458 0A3.295 3.295 0 0 1 32 50.458a3.295 3.295 0 0 1-3.291-3.292A3.295 3.295 0 0 1 32 43.875a3.295 3.295 0 0 1 3.291 3.291"/><path fill="#000" d="M55.698 10.496a.938.938 0 0 0-1.389 1.26A30.05 30.05 0 0 1 62.125 32c0 8.047-3.133 15.612-8.823 21.302S40.047 62.125 32 62.125a30.1 30.1 0 0 1-13.855-3.37c2.728-1.463 4.74-3.975 5.57-7.075l4.216-15.736a1.97 1.97 0 0 0-.514-1.922 1.97 1.97 0 0 0-1.923-.515l-9.737 2.609a.937.937 0 1 0 .485 1.811l9.738-2.61c.017-.004.064-.017.11.03.047.047.035.094.03.111l-4.216 15.737c-.891 3.325-3.408 5.841-6.733 6.732s-6.762-.03-9.196-2.464-3.355-5.872-2.464-9.196c.89-3.325 3.407-5.842 6.732-6.733l1.882-.504a.937.937 0 1 0-.485-1.811l-1.882.504c-2.555.685-4.71 2.173-6.21 4.203A30 30 0 0 1 1.876 32c0-8.047 3.133-15.612 8.823-21.302S23.953 1.875 32 1.875a30.14 30.14 0 0 1 19.454 7.123.937.937 0 1 0 1.211-1.431A32.02 32.02 0 0 0 32 0C23.453 0 15.417 3.329 9.373 9.373S0 23.453 0 32c0 4.108.768 8.109 2.282 11.89a1 1 0 0 0 .053.108q-.386.854-.635 1.783c-1.066 3.98.036 8.095 2.95 11.008 2.181 2.182 5.037 3.348 8.006 3.348.994 0 2.002-.131 3-.399q.128-.035.255-.072A31.97 31.97 0 0 0 32 64c8.548 0 16.584-3.329 22.627-9.373C60.671 48.584 64 40.548 64 32c0-7.97-2.949-15.608-8.302-21.504"/></g><defs><clipPath id="a"><path fill="#fff" d="M0 0h64v64H0z"/></clipPath></defs></svg>