<svg xmlns="http://www.w3.org/2000/svg" width="64" height="64" fill="none"><g clip-path="url(#a)"><path fill="#FFF0AF" d="M61.813 32c0 17.155-12.658 30.938-29.813 30.938-1.055 0-2.097.072-3.125-.03C13.187 61.34.938 48.1.938 32c0-16.083 12.223-29.311 27.886-30.902 1.044-.106 2.104-.036 3.176-.036 17.155 0 29.813 13.783 29.813 30.938"/><path fill="#FFE07D" d="M32 .938q-1.583.001-3.125.155C44.563 2.661 56.813 15.9 56.813 32s-12.25 29.34-27.938 30.907a31 31 0 0 0 3.125.156c17.155 0 31.063-13.908 31.063-31.063S49.155.938 32 .938"/><path fill="#FFE07D" d="M26.857 46.35a2.089 2.089 0 1 1 0 4.178h-6.482c1.18 0 2.13.977 2.088 2.165-.04 1.132-1.005 2.013-2.138 2.013h-1.96a2.089 2.089 0 1 1 0 4.178h-2.079c1.18 0 2.13.977 2.088 2.166-.04 1.132-1.005 2.012-2.138 2.012H3.45a2.51 2.51 0 0 1-2.511-2.511V47.766c0-.879.459-1.694 1.21-2.149l.897-.543a2.51 2.51 0 0 0 1.21-2.148v-6.284c0-1.133.88-2.098 2.013-2.138a2.09 2.09 0 0 1 2.165 2.088v8.251c0 .832.675 1.507 1.507 1.507z"/><path fill="#FFC250" d="M21.626 50.528h-2.5a2.09 2.09 0 0 1 2.087 2.165c-.04 1.132-1.005 2.013-2.138 2.013h-1.959a2.089 2.089 0 0 1 0 4.178h-2.08a2.09 2.09 0 0 1 2.088 2.165c-.04 1.132-1.005 2.013-2.138 2.013h2.5c1.133 0 2.098-.88 2.138-2.013a2.09 2.09 0 0 0-2.087-2.165h2.079a2.089 2.089 0 1 0 0-4.178h1.96c1.132 0 2.097-.88 2.137-2.013a2.09 2.09 0 0 0-2.088-2.165M28.106 46.35h-2.5a2.089 2.089 0 1 1 0 4.178h2.5a2.089 2.089 0 1 0 0-4.178"/><path fill="#685E68" d="M15.895 27.616a2.187 2.187 0 0 1-2.187-2.188V21.45a2.187 2.187 0 1 1 4.375 0v3.978c0 1.208-.98 2.188-2.188 2.188M40.605 27.616a2.19 2.19 0 0 1-2.188-2.188V21.45a2.188 2.188 0 0 1 4.375 0v3.978c0 1.208-.98 2.188-2.187 2.188"/><path fill="#000" d="M44.6 13.205a.94.94 0 0 0-1.232-.487l-5.948 2.576a.938.938 0 0 0 .745 1.72l5.948-2.576a.94.94 0 0 0 .488-1.233M14.543 15.798c.992-.46 2.033-.571 2.716-.29a.937.937 0 0 0 .713-1.735c-1.169-.48-2.745-.359-4.218.324-1.473.684-2.583 1.81-2.971 3.011a.938.938 0 0 0 1.784.576c.227-.703.984-1.426 1.976-1.886M33.446 37.99a14 14 0 0 0-10.748.927.938.938 0 0 0 .864 1.664 12.14 12.14 0 0 1 9.318-.804 12.14 12.14 0 0 1 7.157 6.021.938.938 0 1 0 1.665-.864 14 14 0 0 0-8.256-6.944"/><path fill="#000" d="M17.463 53.769a.937.937 0 1 0 0 1.875h2.153c.635 0 1.151.517 1.151 1.151 0 .635-.516 1.152-1.151 1.152h-2.08a.937.937 0 1 0 0 1.875c.316 0 .61.125.83.352.218.227.333.526.321.842-.021.612-.56 1.109-1.2 1.109H3.448a1.576 1.576 0 0 1-1.574-1.574V47.766c0-.548.29-1.064.759-1.347l.896-.543a3.47 3.47 0 0 0 1.662-2.95v-6.284c0-.64.498-1.18 1.109-1.201.317-.012.615.103.842.322s.352.513.352.829v8.251a2.447 2.447 0 0 0 2.445 2.445h2.6a.937.937 0 1 0 0-1.875h-2.6a.57.57 0 0 1-.57-.57v-8.251c0-.829-.328-1.602-.925-2.178a3 3 0 0 0-2.21-.847c-1.636.059-2.918 1.41-2.918 3.075v4.596A30 30 0 0 1 1.876 32c0-8.047 3.133-15.612 8.823-21.302S23.953 1.875 32 1.875a30.14 30.14 0 0 1 19.454 7.123.937.937 0 1 0 1.211-1.431A32.02 32.02 0 0 0 32 0C23.453 0 15.417 3.329 9.373 9.373S0 23.453 0 32c0 4.277.83 8.422 2.465 12.33l-.803.485A3.47 3.47 0 0 0 0 47.765v12.786A3.453 3.453 0 0 0 3.45 64h14.036c1.397 0 2.572-.901 2.95-2.156A31.8 31.8 0 0 0 32 64c8.548 0 16.584-3.329 22.627-9.373C60.671 48.584 64 40.548 64 32c0-7.97-2.949-15.608-8.302-21.504a.938.938 0 0 0-1.389 1.26A30.05 30.05 0 0 1 62.126 32c0 8.047-3.133 15.612-8.823 21.302S40.047 62.125 32 62.125c-4.055 0-7.983-.793-11.684-2.352l-.012-.03a3.032 3.032 0 0 0 2.067-4.2 3.022 3.022 0 0 0 2.056-4.077h3.68a3.03 3.03 0 0 0 3.026-3.027 3.03 3.03 0 0 0-3.026-3.026h-11.48a.937.937 0 1 0 0 1.875h11.48c.634 0 1.151.516 1.151 1.151s-.517 1.152-1.151 1.152h-10.57a.937.937 0 1 0 0 1.875h4.088c.316 0 .61.125.83.352.218.227.332.526.321.842-.022.612-.56 1.109-1.2 1.109z"/><path fill="#000" d="M15.895 28.553a3.13 3.13 0 0 0 3.125-3.125V21.45a3.13 3.13 0 0 0-3.125-3.125 3.13 3.13 0 0 0-3.125 3.125v3.978a3.13 3.13 0 0 0 3.125 3.125m-1.25-7.103c0-.69.561-1.25 1.25-1.25.69 0 1.25.56 1.25 1.25v3.978c0 .69-.56 1.25-1.25 1.25-.689 0-1.25-.56-1.25-1.25zM43.73 25.428V21.45a3.13 3.13 0 0 0-3.125-3.125 3.13 3.13 0 0 0-3.125 3.125v3.978a3.13 3.13 0 0 0 3.125 3.125 3.13 3.13 0 0 0 3.125-3.125m-1.875 0c0 .69-.561 1.25-1.25 1.25-.69 0-1.25-.56-1.25-1.25V21.45c0-.69.56-1.25 1.25-1.25.689 0 1.25.56 1.25 1.25z"/></g><defs><clipPath id="a"><path fill="#fff" d="M0 0h64v64H0z"/></clipPath></defs></svg>