<svg viewBox="0 0 64 64" xmlns="http://www.w3.org/2000/svg" fill="none"><g clip-path="url(#a)"><path fill="#FFF0AF" d="M61.813 32c0 17.155-12.657 30.936-29.812 30.936-1.055 0-2.097.073-3.125-.03C13.19 61.34.94 48.1.94 32c0-16.083 12.222-29.31 27.885-30.901 1.044-.106 2.104-.035 3.176-.035 17.155 0 29.812 13.781 29.812 30.936"/><path fill="#FFE07D" d="M32.001.939q-1.583.001-3.125.155C44.563 2.662 56.813 15.9 56.813 32s-12.25 29.338-27.937 30.906q1.542.154 3.125.155c17.155 0 31.062-13.906 31.062-31.061S49.156.939 32 .939"/><path fill="#FD8087" d="M38.169 46.25c.754 0 1.345-.666 1.24-1.413-.687-4.858-2.361-7.344-7.408-7.344-3.187 0-6.026.24-7.858 2.561a9.96 9.96 0 0 0-2.049 4.783 1.247 1.247 0 0 0 1.24 1.412z"/><path fill="#EE6161" d="M41.908 44.837a9.96 9.96 0 0 0-2.049-4.783c-1.832-2.321-4.671-3.561-7.858-3.561q-.962.001-1.875.176c2.593.492 4.833 1.734 6.3 3.81a9.95 9.95 0 0 1 1.732 4.358 1.247 1.247 0 0 1-1.24 1.412h3.75c.755 0 1.346-.665 1.24-1.412"/><path fill="#F3F0F3" d="M24.144 40.055a49.7 49.7 0 0 0 12.282.427c1.156-.103.335-.128 1.467-.31-1.833-2.32-2.705-3.93-5.892-3.93a10.005 10.005 0 0 0-7.857 3.812"/><path fill="#E2DEE2" d="M32.001 36.243q-.962.002-1.874.176a10 10 0 0 1 6.3 4.06q1.733-.154 3.431-.424a9.99 9.99 0 0 0-7.857-3.812"/><path fill="#685E68" d="M19.647 30.116a2.187 2.187 0 0 1-2.187-2.188V23.95a2.187 2.187 0 1 1 4.374 0v3.978c0 1.208-.979 2.188-2.187 2.188M44.355 30.116a2.187 2.187 0 0 1-2.187-2.188V23.95a2.187 2.187 0 1 1 4.375 0v3.978c0 1.208-.98 2.188-2.188 2.188"/><path fill="#8AC9FE" d="m2.015 12.045 5.09-8.816 1.092-1.653a.8.8 0 0 1 1.383 0l4.993 10.469c3.055 5.291.425 11.786-5.685 11.786-.62 0-1.215.051-1.783-.077-5.03-1.132-7.835-6.955-5.09-11.709"/><path fill="#60B7FF" d="M15.762 12.045 9.58 1.338a.8.8 0 0 0-1.383 0l-1.092 1.89 5.09 8.817c2.745 4.754-.06 10.576-5.09 11.708a8 8 0 0 0 1.783.197c6.11 0 9.928-6.614 6.874-11.905"/><path fill="#000" d="M23.334 47.187h17.335c.635 0 1.239-.276 1.656-.756.413-.475.6-1.104.512-1.725a10.94 10.94 0 0 0-3.63-6.693 10.94 10.94 0 0 0-7.206-2.707c-2.653 0-5.212.961-7.206 2.707a10.94 10.94 0 0 0-3.629 6.693c-.088.62.099 1.25.512 1.725.416.48 1.02.756 1.656.756m14.572-7.806c-1.955.238-3.935.36-5.905.36s-3.95-.122-5.905-.36a9.06 9.06 0 0 1 5.905-2.2c2.23 0 4.305.826 5.905 2.2m-14.884 5.587a8.96 8.96 0 0 1 1.547-3.901c2.45.363 4.948.549 7.432.549s4.982-.186 7.433-.55a8.96 8.96 0 0 1 1.546 3.902.29.29 0 0 1-.07.234.32.32 0 0 1-.242.11H23.334a.32.32 0 0 1-.24-.11.29.29 0 0 1-.072-.234M49.426 17.729a.94.94 0 0 0-1.224-.509c-.683.282-1.724.173-2.717-.286-.992-.458-1.75-1.18-1.979-1.882a.937.937 0 1 0-1.783.579c.39 1.201 1.502 2.325 2.976 3.005.875.404 1.785.61 2.625.61a4.2 4.2 0 0 0 1.594-.293.937.937 0 0 0 .508-1.224M22.772 27.928V23.95a3.13 3.13 0 0 0-3.125-3.125 3.13 3.13 0 0 0-3.125 3.125v3.978a3.13 3.13 0 0 0 3.125 3.125 3.13 3.13 0 0 0 3.125-3.125m-1.875 0c0 .69-.56 1.25-1.25 1.25s-1.25-.56-1.25-1.25V23.95c0-.69.56-1.25 1.25-1.25s1.25.56 1.25 1.25zM47.48 27.928V23.95a3.13 3.13 0 0 0-3.125-3.125 3.13 3.13 0 0 0-3.124 3.125v3.978a3.13 3.13 0 0 0 3.124 3.125 3.13 3.13 0 0 0 3.125-3.125m-4.375 0V23.95c0-.69.561-1.25 1.25-1.25.69 0 1.25.56 1.25 1.25v3.978c0 .69-.56 1.25-1.25 1.25-.689 0-1.25-.56-1.25-1.25"/><path fill="#000" d="M55.698 10.496a.938.938 0 0 0-1.388 1.26A30.05 30.05 0 0 1 62.125 32c0 8.047-3.133 15.611-8.823 21.3-5.69 5.69-13.255 8.824-21.301 8.824a30.05 30.05 0 0 1-20.257-7.828.938.938 0 1 0-1.261 1.388 31.92 31.92 0 0 0 21.518 8.315c8.547 0 16.583-3.329 22.627-9.373C60.67 48.583 64 40.547 64 32c0-7.97-2.948-15.607-8.302-21.504M1.877 32c0-3.112.47-6.167 1.398-9.098a8.8 8.8 0 0 0 5.613 1.985c3.208 0 6.081-1.658 7.685-4.436q.345-.599.59-1.225c.973-.09 2.011-.446 2.905-1.002 1.106-.688 1.892-1.609 2.211-2.593a.937.937 0 0 0-1.783-.579c-.303.933-1.53 1.84-2.806 2.18a8.8 8.8 0 0 0-1.117-5.656l-2.279-3.948c5.167-3.765 11.27-5.752 17.707-5.752 7.12 0 14.028 2.53 19.453 7.123a.933.933 0 0 0 1.321-.11.937.937 0 0 0-.11-1.321A32 32 0 0 0 32.002 0c-6.77 0-13.194 2.07-18.65 5.995L10.392.87A1.72 1.72 0 0 0 8.889.001c-.627 0-1.19.325-1.503.868L1.203 11.576c-1.604 2.779-1.604 6.096 0 8.874q.28.485.61.921A31.9 31.9 0 0 0 .002 32c0 7.536 2.67 14.856 7.52 20.61a.936.936 0 0 0 1.32.112.937.937 0 0 0 .113-1.32A30.14 30.14 0 0 1 1.877 32M8.888 2.015l6.062 10.499a6.93 6.93 0 0 1 0 6.999 6.93 6.93 0 0 1-6.062 3.5 6.93 6.93 0 0 1-6.061-3.5 6.93 6.93 0 0 1 0-7z"/></g><defs><clipPath id="a"><path fill="#fff" d="M0 0h64v64H0z"/></clipPath></defs></svg>