<svg xmlns="http://www.w3.org/2000/svg" width="64" height="64" fill="none"><g clip-path="url(#a)"><path fill="#FFF0AF" d="M61.813 32c0 17.155-12.658 30.938-29.813 30.938-1.055 0-2.097.072-3.125-.03C13.187 61.34.938 48.1.938 32c0-16.083 12.223-29.311 27.886-30.902 1.044-.106 2.104-.036 3.176-.036 17.155 0 29.813 13.783 29.813 30.938"/><path fill="#FFE07D" d="M32 .938q-1.583.001-3.125.155C44.563 2.661 56.813 15.9 56.813 32s-12.25 29.34-27.938 30.907a31 31 0 0 0 3.125.156c17.155 0 31.063-13.908 31.063-31.063S49.155.938 32 .938"/><path fill="#8AC9FE" d="m14.266 41.155 4.13-7.153.708-.977a.625.625 0 0 1 1.082 0l3.589 8.13c2.39 4.14.652 9.192-4.13 9.192-.432 0-.85.083-1.25.003-4.028-.805-6.304-5.429-4.13-9.196"/><path fill="#60B7FF" d="m25.025 41.155-4.838-8.38a.625.625 0 0 0-1.083 0l-.709 1.227 4.13 7.152c2.174 3.767-.102 8.39-4.13 9.195q.601.122 1.25.123c4.782 0 7.77-5.176 5.38-9.318"/><path fill="#685E68" d="M19.645 28.99a2.187 2.187 0 0 1-2.187-2.187v-3.978a2.187 2.187 0 1 1 4.375 0v3.978c0 1.208-.98 2.188-2.188 2.188M44.355 28.99a2.19 2.19 0 0 1-2.188-2.187v-3.978a2.188 2.188 0 0 1 4.375 0v3.978c0 1.208-.98 2.188-2.187 2.188"/><path fill="#000" d="M1.875 32c0-8.047 3.133-15.612 8.823-21.302S23.953 1.875 32 1.875a30.14 30.14 0 0 1 19.454 7.123.937.937 0 1 0 1.211-1.431A32.02 32.02 0 0 0 32 0C23.453 0 15.417 3.329 9.373 9.373S0 23.453 0 32c0 7.537 2.67 14.856 7.52 20.61a.935.935 0 0 0 1.321.113.94.94 0 0 0 .113-1.321A30.15 30.15 0 0 1 1.875 32M55.698 10.496a.938.938 0 0 0-1.389 1.26A30.05 30.05 0 0 1 62.125 32c0 8.047-3.134 15.612-8.823 21.302-5.69 5.69-13.255 8.823-21.302 8.823-7.51 0-14.705-2.78-20.258-7.828a.937.937 0 1 0-1.26 1.388A31.92 31.92 0 0 0 32 64c8.547 0 16.583-3.328 22.627-9.373C60.671 48.583 64 40.547 64 32c0-7.97-2.949-15.608-8.302-21.504"/><path fill="#000" d="M18.432 15.648c-1.261-.05-2.701.607-3.849 1.755s-1.804 2.587-1.755 3.849a.937.937 0 1 0 1.874-.073c-.029-.738.434-1.677 1.207-2.45s1.71-1.237 2.45-1.207a.938.938 0 0 0 .073-1.874M49.298 21.179a.937.937 0 0 0 1.874.073c.05-1.262-.607-2.701-1.755-3.85-1.148-1.147-2.584-1.805-3.849-1.754a.937.937 0 1 0 .073 1.874c.733-.028 1.677.433 2.45 1.207.774.773 1.236 1.712 1.207 2.45M43.279 46.97a.935.935 0 0 0 1.326 0 .937.937 0 0 0 0-1.325 17.8 17.8 0 0 0-18.41-4.251 7 7 0 0 0-.358-.708l-4.838-8.38a1.55 1.55 0 0 0-1.354-.781c-.564 0-1.07.292-1.353.78l-4.838 8.38a7.08 7.08 0 0 0 0 7.15 7.08 7.08 0 0 0 6.191 3.575c2.585 0 4.9-1.337 6.192-3.575a7.1 7.1 0 0 0 .887-4.64 15.93 15.93 0 0 1 16.555 3.776m-19.066-.073a5.22 5.22 0 0 1-4.568 2.638 5.22 5.22 0 0 1-4.567-2.638 5.22 5.22 0 0 1 0-5.274l4.567-7.911 4.568 7.911a5.22 5.22 0 0 1 0 5.274M16.52 22.825v3.978a3.13 3.13 0 0 0 3.125 3.125 3.13 3.13 0 0 0 3.125-3.125v-3.978a3.13 3.13 0 0 0-3.125-3.125 3.13 3.13 0 0 0-3.125 3.125m1.875 0c0-.69.561-1.25 1.25-1.25.69 0 1.25.56 1.25 1.25v3.978c0 .69-.56 1.25-1.25 1.25-.689 0-1.25-.56-1.25-1.25zM47.48 26.803v-3.978a3.13 3.13 0 0 0-3.125-3.125 3.13 3.13 0 0 0-3.125 3.125v3.978a3.13 3.13 0 0 0 3.125 3.125 3.13 3.13 0 0 0 3.125-3.125m-1.875 0c0 .69-.561 1.25-1.25 1.25-.69 0-1.25-.56-1.25-1.25v-3.978c0-.69.56-1.25 1.25-1.25.689 0 1.25.56 1.25 1.25z"/></g><defs><clipPath id="a"><path fill="#fff" d="M0 0h64v64H0z"/></clipPath></defs></svg>