<svg xmlns="http://www.w3.org/2000/svg" width="24" height="24" fill="none"><path fill="#000" fill-rule="evenodd" d="M21.567 5.503a2.5 2.5 0 0 0-2.5-2.5H4.607a2.49 2.49 0 0 0-.77 4.89v9a3.36 3.36 0 0 0 3.35 3.36h9.28a3.36 3.36 0 0 0 3.37-3.36v-9a2.49 2.49 0 0 0 1.73-2.39m-5.09 13.24h-9.28a1.85 1.85 0 0 1-1.85-1.85v-8.89h13v8.89a1.85 1.85 0 0 1-1.87 1.85M4.607 6.503h14.46a1 1 0 1 0 0-2H4.607a1 1 0 1 0 0 2" clip-rule="evenodd"/><path fill="#000" d="M14.087 10.633h-4.5a.75.75 0 0 0 0 1.5h4.5a.75.75 0 0 0 0-1.5"/></svg>