<svg viewBox="0 0 24 24" xmlns="http://www.w3.org/2000/svg" fill="none"><path d="M16.45 9.12a.75.75 0 0 1 1.278.533.74.74 0 0 1-.228.528l-1.64 1.65 1.64 1.64a.74.74 0 0 1 0 1.06.73.73 0 0 1-.53.22.74.74 0 0 1-.53-.22l-1.64-1.64-1.65 1.64a.7.7 0 0 1-.53.22.75.75 0 0 1-.53-1.28l1.65-1.64-1.64-1.65a.75.75 0 0 1 1.06-1.06l1.65 1.63z"/><path fill-rule="evenodd" d="M19.41 5h-11a2.1 2.1 0 0 0-1.53.75L2.5 10.63a2 2 0 0 0 .06 2.71l4.32 4.52c.398.412.947.643 1.52.64h11a2 2 0 0 0 2.07-2V7a2 2 0 0 0-2.06-2m.57 11.5a.53.53 0 0 1-.57.5h-11a.6.6 0 0 1-.43-.18L3.64 12.3a.49.49 0 0 1 0-.67L8 6.69a.62.62 0 0 1 .45-.19h11a.53.53 0 0 1 .57.5z" clip-rule="evenodd"/></svg>