<svg xmlns="http://www.w3.org/2000/svg" width="64" height="64" fill="none"><g clip-path="url(#a)"><path fill="#FFF0AF" d="M61.813 32c0 17.155-12.658 30.938-29.813 30.938-1.055 0-2.097.072-3.125-.03C13.187 61.34.938 48.1.938 32c0-16.083 12.223-29.311 27.886-30.902 1.044-.106 2.104-.036 3.176-.036 17.155 0 29.813 13.783 29.813 30.938"/><path fill="#FFE07D" d="M32 .938q-1.583.001-3.125.155C44.563 2.661 56.813 15.9 56.813 32s-12.25 29.34-27.938 30.907a31 31 0 0 0 3.125.156c17.155 0 31.063-13.908 31.063-31.063S49.155.938 32 .938"/><path fill="#685E68" d="M19.645 30.116a2.187 2.187 0 0 1-2.187-2.188V23.95a2.187 2.187 0 1 1 4.375 0v3.978c0 1.208-.98 2.188-2.188 2.188M44.355 30.116a2.187 2.187 0 0 1-2.188-2.188V23.95a2.187 2.187 0 1 1 4.375 0v3.978c0 1.208-.98 2.188-2.187 2.188"/><path fill="#000" d="M8.238 52.944a.94.94 0 0 1-.718-.334A32.02 32.02 0 0 1 0 32c0-8.547 3.329-16.583 9.373-22.627S23.453 0 32 0a32.02 32.02 0 0 1 20.665 7.567.938.938 0 0 1-1.211 1.43A30.14 30.14 0 0 0 32 1.876c-8.047 0-15.612 3.133-21.302 8.823S1.875 23.953 1.875 32a30.15 30.15 0 0 0 7.079 19.402.937.937 0 0 1-.716 1.542M32 64a31.92 31.92 0 0 1-21.519-8.315.937.937 0 1 1 1.261-1.388A30.05 30.05 0 0 0 32 62.125c8.047 0 15.612-3.133 21.302-8.823S62.125 40.047 62.125 32a30.05 30.05 0 0 0-7.816-20.244.937.937 0 1 1 1.389-1.26A31.93 31.93 0 0 1 64 32c0 8.548-3.329 16.584-9.373 22.627C48.583 60.671 40.547 64 32 64"/><path fill="#000" d="M19.645 31.053a3.13 3.13 0 0 1-3.125-3.125V23.95a3.13 3.13 0 0 1 3.125-3.125 3.13 3.13 0 0 1 3.125 3.125v3.978a3.13 3.13 0 0 1-3.125 3.125m0-8.353c-.689 0-1.25.56-1.25 1.25v3.978c0 .69.561 1.25 1.25 1.25.69 0 1.25-.56 1.25-1.25V23.95c0-.69-.56-1.25-1.25-1.25M44.355 31.053a3.13 3.13 0 0 1-3.125-3.125V23.95a3.13 3.13 0 0 1 3.125-3.125 3.13 3.13 0 0 1 3.125 3.125v3.978a3.13 3.13 0 0 1-3.125 3.125m0-8.353c-.69 0-1.25.56-1.25 1.25v3.978c0 .69.56 1.25 1.25 1.25.689 0 1.25-.56 1.25-1.25V23.95c0-.69-.561-1.25-1.25-1.25"/></g><defs><clipPath id="a"><path fill="#fff" d="M0 0h64v64H0z"/></clipPath></defs></svg>