<svg xmlns="http://www.w3.org/2000/svg" width="64" height="64" fill="none"><g clip-path="url(#a)"><path fill="#FFF0AF" d="M61.813 32c0 17.155-12.658 30.938-29.813 30.938-1.055 0-2.097.072-3.125-.03C13.187 61.34.938 48.1.938 32c0-16.083 12.223-29.311 27.886-30.902 1.044-.106 2.104-.036 3.176-.036 17.155 0 29.813 13.783 29.813 30.938"/><path fill="#FD8087" d="M16.2 34.54c2.55 0 4.619-1.033 4.619-2.309 0-1.275-2.068-2.31-4.62-2.31-2.55 0-4.618 1.035-4.618 2.31s2.068 2.31 4.619 2.31M47.8 34.54c2.551 0 4.619-1.033 4.619-2.309 0-1.275-2.068-2.31-4.619-2.31s-4.619 1.035-4.619 2.31 2.068 2.31 4.619 2.31"/><path fill="#FFE07D" d="M32 .938q-1.583.001-3.125.155C44.563 2.661 56.813 15.9 56.813 32s-12.25 29.34-27.938 30.907a31 31 0 0 0 3.125.156c17.155 0 31.063-13.908 31.063-31.063S49.155.938 32 .938"/><path fill="#000" d="M32 47.237a17.77 17.77 0 0 1-12.605-5.213.938.938 0 0 1 1.326-1.326c6.22 6.22 16.339 6.22 22.558 0a.938.938 0 0 1 1.326 1.326A17.77 17.77 0 0 1 32 47.237M23.092 27.871a.94.94 0 0 1-.813-.469 3.01 3.01 0 0 0-2.634-1.52 3.01 3.01 0 0 0-2.633 1.52.938.938 0 0 1-1.624-.937 4.87 4.87 0 0 1 4.257-2.458c1.778 0 3.37.919 4.258 2.458a.938.938 0 0 1-.811 1.406M47.8 27.871a.94.94 0 0 1-.812-.469 3.01 3.01 0 0 0-2.633-1.52 3.01 3.01 0 0 0-2.634 1.52.938.938 0 0 1-1.624-.937 4.87 4.87 0 0 1 4.258-2.458c1.777 0 3.368.919 4.257 2.458a.938.938 0 0 1-.811 1.406M16.2 35.478c-3.168 0-5.556-1.395-5.556-3.247 0-1.85 2.388-3.247 5.556-3.247s5.556 1.396 5.556 3.247c0 1.852-2.388 3.247-5.556 3.247m0-4.619c-2.429 0-3.681.962-3.681 1.372s1.252 1.372 3.681 1.372 3.681-.961 3.681-1.372c0-.41-1.252-1.372-3.68-1.372M47.8 35.478c-3.168 0-5.557-1.395-5.557-3.247 0-1.85 2.389-3.247 5.557-3.247s5.556 1.396 5.556 3.247c0 1.852-2.389 3.247-5.556 3.247m0-4.619c-2.43 0-3.682.962-3.682 1.372s1.253 1.372 3.682 1.372 3.681-.961 3.681-1.372c0-.41-1.252-1.372-3.681-1.372"/><path fill="#000" d="M32 64a31.92 31.92 0 0 1-21.519-8.315.938.938 0 0 1 1.261-1.388A30.05 30.05 0 0 0 32 62.125c8.047 0 15.612-3.133 21.302-8.823S62.125 40.047 62.125 32a30.06 30.06 0 0 0-7.815-20.244.937.937 0 1 1 1.388-1.26A31.93 31.93 0 0 1 64 32c0 8.548-3.329 16.584-9.373 22.627C48.584 60.671 40.548 64 32 64M8.238 52.944a.94.94 0 0 1-.718-.334A32.02 32.02 0 0 1 0 32c0-8.547 3.329-16.583 9.373-22.627S23.453 0 32 0a32.02 32.02 0 0 1 20.665 7.567.937.937 0 1 1-1.211 1.43A30.14 30.14 0 0 0 32 1.876c-8.047 0-15.612 3.133-21.302 8.823S1.875 23.953 1.875 32a30.14 30.14 0 0 0 7.079 19.402.937.937 0 0 1-.716 1.542"/></g><defs><clipPath id="a"><path fill="#fff" d="M0 0h64v64H0z"/></clipPath></defs></svg>