<svg width="24" height="24" viewBox="0 0 24 24" fill="none" xmlns="http://www.w3.org/2000/svg">
<path fill-rule="evenodd" clip-rule="evenodd" d="M14.93 2.99996H7C4.79086 2.99996 3 4.79082 3 6.99996V17C3 19.2091 4.79086 21 7 21H17C19.2091 21 21 19.2091 21 17V8.99996C20.9994 8.32897 20.7334 7.68546 20.26 7.20996L16.72 3.71996C16.2401 3.2557 15.5977 2.99733 14.93 2.99996ZM7.48 16.89C6.6176 16.894 5.83786 16.3776 5.50502 15.582C5.17218 14.7864 5.35194 13.8686 5.96032 13.2574C6.5687 12.6461 7.48563 12.4621 8.28279 12.7912C9.07994 13.1202 9.59999 13.8975 9.6 14.76C9.60266 15.3239 9.38048 15.8658 8.98261 16.2655C8.58475 16.6652 8.044 16.89 7.48 16.89ZM6.11 8.08996H13.53C13.9442 8.08996 14.28 7.75417 14.28 7.33996C14.28 6.92575 13.9442 6.58996 13.53 6.58996H6.11C5.69579 6.58996 5.36 6.92575 5.36 7.33996C5.36 7.75417 5.69579 8.08996 6.11 8.08996Z" fill="black"/>
</svg>
