<svg xmlns="http://www.w3.org/2000/svg" width="64" height="64" fill="none"><g clip-path="url(#a)"><path fill="#FFF0AF" d="M61.813 32c0 17.155-12.658 30.938-29.813 30.938-1.055 0-2.097.072-3.125-.03-13.94-1.393-25.164-12-27.493-25.642A31.3 31.3 0 0 1 .938 32c0-16.083 12.223-25.561 27.886-27.152 1.044-.106 2.104-.036 3.176-.036 17.155 0 29.813 10.033 29.813 27.188"/><path fill="#FFE07D" d="M32 2.188q-1.583.001-3.125.155c14.192 1.418 25.57 11.138 27.611 25.137.215 1.476.327 2.985.327 4.52 0 16.1-12.25 29.34-27.938 30.907a31 31 0 0 0 3.125.156c15.36 0 28.117-11.15 30.618-25.797.292-1.712.194-3.471.194-5.266C62.813 14.845 49.156 2.188 32 2.188"/><path fill="#8AC9FE" d="M56.487 27.48c-5.685-5.14-14.54-8.445-24.487-8.445-15.36 0-28.115 7.88-30.616 18.23A31 31 0 0 1 .938 32c0-16.1 12.25-29.34 27.937-30.907 1.028-.103 2.07-.03 3.125-.03 17.155 0 30.563 13.782 30.563 30.937z"/><path fill="#60B7FF" d="M32 .938q-1.583.001-3.125.155c14.192 1.418 25.57 12.388 27.61 26.388 3.093 2.797 5.25 6.137 6.131 9.784.292-1.711.447-3.47.447-5.265C63.063 14.845 49.155.938 32 .938"/><path fill="#FD8087" d="M38.168 47.75c.755 0 1.345-.664 1.24-1.412-.687-4.858-2.36-7.344-7.408-7.344-3.187 0-6.026.24-7.858 2.561a9.96 9.96 0 0 0-2.05 4.783 1.247 1.247 0 0 0 1.24 1.412z"/><path fill="#EE6161" d="M41.908 46.338a9.96 9.96 0 0 0-2.05-4.783c-1.832-2.321-4.671-3.561-7.858-3.561-.64 0-1.268.06-1.875.176 2.593.492 4.833 1.734 6.3 3.81a9.95 9.95 0 0 1 1.733 4.358 1.247 1.247 0 0 1-1.24 1.412h3.75c.754 0 1.345-.664 1.24-1.412"/><path fill="#F3F0F3" d="M24.143 41.556a49.7 49.7 0 0 0 12.282.427c1.156-.103.335-.128 1.467-.31-1.832-2.32-2.705-3.929-5.892-3.929-.64 0-1.268.06-1.875.175a10 10 0 0 0-5.982 3.637"/><path fill="#E2DEE2" d="M32 37.744q-.962.002-1.873.176a10 10 0 0 1 6.298 4.06q1.735-.153 3.433-.424A9.99 9.99 0 0 0 32 37.744"/><path fill="#685E68" d="M19.645 30.24a2.187 2.187 0 0 1-2.187-2.187v-3.978a2.187 2.187 0 1 1 4.375 0v3.978c0 1.208-.98 2.188-2.188 2.188M44.355 30.24a2.19 2.19 0 0 1-2.188-2.187v-3.978a2.188 2.188 0 0 1 4.375 0v3.978c0 1.208-.98 2.188-2.187 2.188"/><path fill="#000" d="M23.333 48.688h17.335c.635 0 1.239-.276 1.656-.756.413-.475.6-1.104.512-1.725a10.94 10.94 0 0 0-3.63-6.693A10.94 10.94 0 0 0 32 36.806c-2.653 0-5.213.962-7.207 2.708a10.94 10.94 0 0 0-3.629 6.693c-.087.621.1 1.25.512 1.725.417.48 1.02.756 1.657.756m14.572-7.806c-1.956.238-3.935.36-5.905.36s-3.95-.122-5.905-.36a9.06 9.06 0 0 1 5.905-2.2c2.23 0 4.305.826 5.905 2.2M23.021 46.47a8.96 8.96 0 0 1 1.546-3.901c2.452.363 4.95.549 7.433.549 2.484 0 4.982-.186 7.433-.55a8.96 8.96 0 0 1 1.546 3.902.29.29 0 0 1-.07.234.32.32 0 0 1-.241.11H23.333a.32.32 0 0 1-.241-.11.29.29 0 0 1-.071-.234"/><path fill="#000" d="M55.698 10.496a.938.938 0 0 0-1.389 1.26A30.05 30.05 0 0 1 62.125 32c0 8.047-3.134 15.612-8.823 21.302-5.69 5.69-13.255 8.823-21.302 8.823-7.51 0-14.705-2.78-20.258-7.828a.937.937 0 1 0-1.26 1.388A31.92 31.92 0 0 0 32 64c8.547 0 16.583-3.329 22.627-9.373S64 40.548 64 32c0-7.97-2.949-15.608-8.302-21.504M1.875 32c0-8.047 3.133-15.612 8.823-21.302S23.953 1.875 32 1.875a30.14 30.14 0 0 1 19.454 7.123.937.937 0 1 0 1.211-1.431A32.02 32.02 0 0 0 32 0C23.453 0 15.417 3.329 9.373 9.373S0 23.453 0 32c0 7.536 2.67 14.856 7.52 20.61a.935.935 0 0 0 1.321.113.937.937 0 0 0 .113-1.321A30.15 30.15 0 0 1 1.875 32"/><path fill="#000" d="M19.332 16.621a.937.937 0 0 0-.9-.973c-1.261-.046-2.701.607-3.85 1.755-1.147 1.148-1.803 2.587-1.754 3.849a.937.937 0 1 0 1.874-.073c-.029-.738.434-1.677 1.207-2.45s1.71-1.235 2.45-1.207a.94.94 0 0 0 .973-.9M49.298 21.179a.937.937 0 1 0 1.874.073c.05-1.262-.607-2.701-1.755-3.85-1.148-1.147-2.587-1.802-3.849-1.754a.937.937 0 1 0 .073 1.874c.74-.028 1.677.433 2.45 1.207.774.773 1.236 1.712 1.207 2.45M19.645 31.178a3.13 3.13 0 0 0 3.125-3.125v-3.978a3.13 3.13 0 0 0-3.125-3.125 3.13 3.13 0 0 0-3.125 3.125v3.978a3.13 3.13 0 0 0 3.125 3.125m-1.25-7.103c0-.69.561-1.25 1.25-1.25.69 0 1.25.56 1.25 1.25v3.978c0 .69-.56 1.25-1.25 1.25-.689 0-1.25-.56-1.25-1.25zM47.48 28.053v-3.978a3.13 3.13 0 0 0-3.125-3.125 3.13 3.13 0 0 0-3.125 3.125v3.978a3.13 3.13 0 0 0 3.125 3.125 3.13 3.13 0 0 0 3.125-3.125m-4.375 0v-3.978c0-.69.56-1.25 1.25-1.25.689 0 1.25.56 1.25 1.25v3.978c0 .69-.561 1.25-1.25 1.25-.69 0-1.25-.56-1.25-1.25"/></g><defs><clipPath id="a"><path fill="#fff" d="M0 0h64v64H0z"/></clipPath></defs></svg>