<svg xmlns="http://www.w3.org/2000/svg" width="64" height="64" fill="none"><g clip-path="url(#a)"><path fill="#FFF0AF" d="M61.813 32c0 17.155-12.658 30.938-29.813 30.938-1.055 0-2.097.072-3.125-.03-13.94-1.393-25.164-12-27.493-25.642A31.3 31.3 0 0 1 .938 32c0-16.083 12.223-25.561 27.886-27.152 1.044-.106 2.104-.036 3.176-.036 17.155 0 29.813 10.033 29.813 27.188"/><path fill="#FFE07D" d="M32 2.188q-1.583.001-3.125.155c14.192 1.418 25.57 11.138 27.611 25.138a31 31 0 0 1 .327 4.52c0 16.1-12.25 29.339-27.938 30.906a31 31 0 0 0 3.125.156c15.36 0 28.117-11.15 30.618-25.797.292-1.712.194-3.471.194-5.266C62.813 14.845 49.156 2.188 32 2.188"/><path fill="#8AC9FE" d="M56.487 27.48c-5.685-5.14-14.54-8.445-24.487-8.445-15.36 0-28.115 7.88-30.616 18.23A31 31 0 0 1 .938 32c0-16.1 12.25-29.34 27.937-30.907 1.028-.103 2.07-.03 3.125-.03 17.155 0 30.563 13.782 30.563 30.937z"/><path fill="#60B7FF" d="M32 .938q-1.583.001-3.125.155c14.192 1.418 25.57 12.388 27.61 26.388 3.093 2.797 5.25 6.137 6.131 9.784.292-1.711.447-3.47.447-5.265C63.063 14.845 49.155.938 32 .938"/><path fill="#FD8087" d="M39.265 43.94c0 4.942-3.17 8.798-7.265 8.798-.512 0-1.012.088-1.494-.032-3.379-.834-5.92-4.441-5.92-8.765 0-4.322 2.539-7.928 5.915-8.765.484-.12.986-.033 1.5-.033 4.094 0 7.264 3.856 7.264 8.798"/><path fill="#EE6161" d="M32 34.993q-.772.002-1.499.183c3.376.837 5.916 4.443 5.916 8.765s-2.54 7.928-5.916 8.764q.728.182 1.499.183c4.095 0 7.414-4.006 7.414-8.947 0-4.942-3.32-8.948-7.414-8.948"/><path fill="#FFE07D" d="M45.225 61.712v-6.739A26.92 26.92 0 0 1 51.35 37.88l1.573-1.914c.217-.264.465-.486.733-.666 1.298-.867 2.837-.248 4.007.914v-.25c.86.854 1.196 1.853.881 3.023l-3.194 8.168a6.9 6.9 0 0 0-.236 1.784v12.774c0 .69-.56 1.25-1.25 1.25h-7.389c-.69 0-1.25-.56-1.25-1.25"/><path fill="#FFC250" d="M57.913 35.714a3.38 3.38 0 0 0-4.256-.413q.268.178.506.413a3.38 3.38 0 0 1 .881 3.272l-2.194 8.168a6.9 6.9 0 0 0-.236 1.784v12.774c0 .69-.56 1.25-1.25 1.25h3.75c.69 0 1.25-.56 1.25-1.25V48.938c0-.603.08-1.202.236-1.784l2.194-8.168a3.38 3.38 0 0 0-.881-3.272"/><path fill="#FFE07D" d="M17.525 61.712v-6.739c0-6.235-.915-12.027-4.875-16.844l-1.574-1.914c-1.122-1.366-3.072-1.86-4.484-.916a3.378 3.378 0 0 0-1.386 3.686L7.4 47.155c.157.581.236 1.181.236 1.784v12.774c0 .69.56 1.25 1.25 1.25h7.389c.69 0 1.25-.56 1.25-1.25"/><path fill="#FFC250" d="m12.65 37.879-1.573-1.914a3.38 3.38 0 0 0-4.484-.664c.269.18.517.4.734.664L8.9 37.879a26.92 26.92 0 0 1 6.125 17.095v6.738c0 .69-.56 1.25-1.25 1.25h3.75c.69 0 1.25-.56 1.25-1.25v-6.739A26.92 26.92 0 0 0 12.65 37.88"/><path fill="#F3F0F3" d="M51.264 25.939c0 3.954-2.955 7.034-6.91 7.034-.426 0-.844.088-1.25.017a7.161 7.161 0 0 1 0-14.102c.406-.071.824.017 1.25.017 3.955 0 6.91 3.08 6.91 7.034"/><path fill="#E2DEE2" d="M44.355 18.78c-.427 0-.844.04-1.25.11a7.16 7.16 0 0 1 0 14.097q.61.11 1.25.111a7.16 7.16 0 1 0 0-14.318"/><path fill="#F3F0F3" d="M26.555 25.939c0 3.954-2.956 7.034-6.91 7.034-.426 0-.844.088-1.25.017a7.161 7.161 0 0 1 0-14.102c.406-.071.824.017 1.25.017 3.954 0 6.91 3.08 6.91 7.034"/><path fill="#E2DEE2" d="M19.645 18.78a7 7 0 0 0-1.25.11 7.16 7.16 0 0 1 0 14.097 7.16 7.16 0 1 0 1.25-14.208"/><path fill="#000" d="M32 53.826c4.605 0 8.352-4.435 8.352-9.885S36.605 34.056 32 34.056s-8.352 4.434-8.352 9.885 3.747 9.885 8.352 9.885m0-17.895c3.571 0 6.477 3.593 6.477 8.01S35.57 51.95 32 51.95s-6.477-3.593-6.477-8.01S28.43 35.93 32 35.93M52.451 25.939c0-4.465-3.632-8.097-8.096-8.097s-8.097 3.632-8.097 8.097 3.632 8.097 8.097 8.097 8.096-3.632 8.096-8.097m-14.318 0a6.23 6.23 0 0 1 6.221-6.222 6.23 6.23 0 0 1 6.222 6.222 6.23 6.23 0 0 1-6.222 6.222 6.23 6.23 0 0 1-6.221-6.222M19.646 17.842c-4.465 0-8.097 3.632-8.097 8.097s3.632 8.097 8.096 8.097 8.097-3.633 8.097-8.097c0-4.465-3.632-8.097-8.097-8.097m0 14.319a6.23 6.23 0 0 1-6.222-6.222 6.23 6.23 0 0 1 6.221-6.222 6.23 6.23 0 0 1 6.222 6.222 6.23 6.23 0 0 1-6.222 6.222"/><path fill="#000" d="M64 32c0-7.97-2.949-15.608-8.302-21.504a.937.937 0 1 0-1.389 1.26A30.05 30.05 0 0 1 62.126 32c0 5.87-1.647 11.451-4.786 16.302a6 6 0 0 1 .166-.905l2.194-8.168c.401-1.49-.03-3.093-1.126-4.18a4.33 4.33 0 0 0-3.258-1.249 4.32 4.32 0 0 0-3.116 1.57l-1.573 1.914a27.92 27.92 0 0 0-6.339 17.69v4.537A29.9 29.9 0 0 1 32 62.125a29.9 29.9 0 0 1-12.287-2.614v-4.538c0-6.435-2.251-12.718-6.338-17.69L11.8 35.37A4.32 4.32 0 0 0 8.685 33.8a4.32 4.32 0 0 0-3.258 1.248A4.33 4.33 0 0 0 4.3 39.23l2.194 8.168q.118.447.166.905C3.522 43.452 1.875 37.871 1.875 32c0-8.047 3.133-15.612 8.823-21.302S23.953 1.875 32 1.875a30.14 30.14 0 0 1 19.454 7.123.937.937 0 1 0 1.211-1.431A32.02 32.02 0 0 0 32 0C23.453 0 15.417 3.329 9.373 9.373S0 23.453 0 32c0 7.175 2.316 13.943 6.698 19.591v2.244a.938.938 0 0 0 1.875 0v-4.897c0-.684-.09-1.366-.267-2.027L6.11 38.743a2.44 2.44 0 0 1 .637-2.364 2.4 2.4 0 0 1 1.843-.706c.694.035 1.32.35 1.761.887l1.574 1.914a26.04 26.04 0 0 1 5.912 16.5v6.738c0 .173-.14.313-.313.313h-8.64a.313.313 0 0 1-.312-.313V58.1a.937.937 0 1 0-1.875 0v3.613A2.19 2.19 0 0 0 8.886 63.9h8.64a2.19 2.19 0 0 0 2.187-2.188v-.159A31.7 31.7 0 0 0 32 64c4.27 0 8.396-.825 12.287-2.447v.16a2.19 2.19 0 0 0 2.188 2.187h8.64a2.19 2.19 0 0 0 2.187-2.188v-10.12C61.684 45.941 64 39.174 64 32m-8.573 29.712c0 .173-.14.313-.313.313h-8.64a.313.313 0 0 1-.312-.313v-6.739c0-6.002 2.1-11.862 5.912-16.499l1.574-1.914a2.41 2.41 0 0 1 1.89-.89c.646 0 1.25.249 1.714.709.619.615.863 1.52.636 2.364l-2.194 8.168a7.8 7.8 0 0 0-.268 2.027z"/></g><defs><clipPath id="a"><path fill="#fff" d="M0 0h64v64H0z"/></clipPath></defs></svg>